<?xml version="1.0" encoding="UTF-8" standalone="no"?>
<!-- Created with Inkscape (http://www.inkscape.org/) -->

<svg
   xmlns:dc="http://purl.org/dc/elements/1.1/"
   xmlns:cc="http://creativecommons.org/ns#"
   xmlns:rdf="http://www.w3.org/1999/02/22-rdf-syntax-ns#"
   xmlns:svg="http://www.w3.org/2000/svg"
   xmlns="http://www.w3.org/2000/svg"
   xmlns:sodipodi="http://sodipodi.sourceforge.net/DTD/sodipodi-0.dtd"
   xmlns:inkscape="http://www.inkscape.org/namespaces/inkscape"
   width="128"
   height="128"
   viewBox="0 0 33.866667 33.866667"
   version="1.1"
   id="svg3813"
   inkscape:version="0.92.3 (2405546, 2018-03-11)"
   sodipodi:docname="prog_trkr128.svg">
  <defs
     id="defs3807" />
  <sodipodi:namedview
     id="base"
     pagecolor="#ffffff"
     bordercolor="#666666"
     borderopacity="1.0"
     inkscape:pageopacity="0.0"
     inkscape:pageshadow="2"
     inkscape:zoom="5.6"
     inkscape:cx="92.338802"
     inkscape:cy="63.412991"
     inkscape:document-units="mm"
     inkscape:current-layer="layer1"
     showgrid="false"
     inkscape:window-width="1920"
     inkscape:window-height="1052"
     inkscape:window-x="1920"
     inkscape:window-y="0"
     inkscape:window-maximized="1"
     units="px" />
  <metadata
     id="metadata3810">
    <rdf:RDF>
      <cc:Work
         rdf:about="">
        <dc:format>image/svg+xml</dc:format>
        <dc:type
           rdf:resource="http://purl.org/dc/dcmitype/StillImage" />
        <dc:title></dc:title>
      </cc:Work>
    </rdf:RDF>
  </metadata>
  <g
     inkscape:label="Layer 1"
     inkscape:groupmode="layer"
     id="layer1"
     transform="translate(0,-263.13334)">
    <path
       style="fill:#abcb57;stroke-width:0.07347735"
       d="m 19.641903,268.46226 c -1.495485,0 -2.707864,1.21228 -2.707864,2.70779 0,-1.49551 -1.212371,-2.70779 -2.707855,-2.70779 H 0.03426154 v 22.09375 l 16.89977746,0.16562 16.899784,-0.16562 v -22.09375 z"
       id="path2"
       inkscape:connector-curvature="0" />
    <path
       style="fill:#edeef0;stroke-width:0.07347735"
       d="m 19.377606,270.34042 c -1.349559,0 -2.443567,1.094 -2.443567,2.44356 0,-1.34956 -1.093999,-2.44356 -2.443561,-2.44356 H 1.6833132 v 17.93696 H 14.490478 c 1.349562,0 2.443561,1.09415 2.443561,2.44371 0,-1.34956 1.094008,-2.44371 2.443567,-2.44371 h 12.807147 v -17.93696 z"
       id="path4"
       inkscape:connector-curvature="0" />
    <rect
       x="4.4564214"
       y="272.74619"
       style="opacity:0.4;fill:#5b5b5f;stroke-width:0.07347735;enable-background:new"
       width="5.4758215"
       height="0.73477304"
       id="rect6" />
    <rect
       x="4.4564214"
       y="274.82059"
       style="opacity:0.4;fill:#5b5b5f;stroke-width:0.07347735;enable-background:new"
       width="9.7045135"
       height="0.73477304"
       id="rect8" />
    <rect
       x="4.4564214"
       y="276.89459"
       style="opacity:0.4;fill:#5b5b5f;stroke-width:0.07347735;enable-background:new"
       width="9.7045135"
       height="0.73477304"
       id="rect10" />
    <rect
       x="4.4564214"
       y="278.96893"
       style="opacity:0.4;fill:#5b5b5f;stroke-width:0.07347735;enable-background:new"
       width="9.7045135"
       height="0.73477304"
       id="rect12" />
    <rect
       x="4.4564214"
       y="281.043"
       style="opacity:0.4;fill:#5b5b5f;stroke-width:0.07347735;enable-background:new"
       width="9.7045135"
       height="0.73477304"
       id="rect14" />
    <rect
       x="4.4564214"
       y="283.11758"
       style="opacity:0.4;fill:#5b5b5f;stroke-width:0.07347735;enable-background:new"
       width="9.7045135"
       height="0.73477304"
       id="rect16" />
    <rect
       x="4.4564214"
       y="285.19135"
       style="opacity:0.4;fill:#5b5b5f;stroke-width:0.07347735;enable-background:new"
       width="9.7045135"
       height="0.73477304"
       id="rect18" />
    <rect
       x="19.707188"
       y="274.82059"
       style="opacity:0.4;fill:#5b5b5f;stroke-width:0.07347735;enable-background:new"
       width="9.7045135"
       height="0.73477304"
       id="rect20" />
    <rect
       x="19.707188"
       y="272.74619"
       style="opacity:0.4;fill:#5b5b5f;stroke-width:0.07347735;enable-background:new"
       width="9.7045135"
       height="0.73477304"
       id="rect22" />
    <rect
       x="19.707188"
       y="276.89459"
       style="opacity:0.4;fill:#5b5b5f;stroke-width:0.07347735;enable-background:new"
       width="9.7045135"
       height="0.73477304"
       id="rect24" />
    <rect
       x="19.707188"
       y="278.96893"
       style="opacity:0.4;fill:#5b5b5f;stroke-width:0.07347735;enable-background:new"
       width="9.7045135"
       height="0.73477304"
       id="rect26" />
    <rect
       x="19.707188"
       y="281.043"
       style="opacity:0.4;fill:#5b5b5f;stroke-width:0.07347735;enable-background:new"
       width="9.7045135"
       height="0.73477304"
       id="rect28" />
    <rect
       x="19.707188"
       y="283.11758"
       style="opacity:0.4;fill:#5b5b5f;stroke-width:0.07347735;enable-background:new"
       width="9.7045135"
       height="0.73477304"
       id="rect30" />
    <rect
       x="19.707188"
       y="285.19135"
       style="opacity:0.4;fill:#5b5b5f;stroke-width:0.07347735;enable-background:new"
       width="9.7045135"
       height="0.73477304"
       id="rect32" />
    <path
       style="opacity:0.3;fill:#5b5b5f;stroke-width:0.07347735;enable-background:new"
       d="m 19.641829,268.46226 c -1.495411,0 -2.70779,1.21228 -2.70779,2.70779 v 1.61401 17.93703 l 16.899778,-0.16561 v -22.09375 z"
       id="path34"
       inkscape:connector-curvature="0" />
    <polygon
       style="fill:#b8554e"
       points="345.291,387.359 332.494,400.185 332.494,59.922 357.506,59.922 357.506,400.185 "
       id="polygon36"
       transform="matrix(0.07347735,0,0,0.07347735,0.03426154,264.06732)" />
    <polygon
       style="opacity:0.3;fill:#5b5b5f;enable-background:new"
       points="357.506,59.922 357.506,400.185 345.291,387.359 345.291,59.922 "
       id="polygon38"
       transform="matrix(0.07347735,0,0,0.07347735,0.03426154,264.06732)" />
  </g>
</svg>
